<svg height="512" viewBox="0 0 512 512" width="512" xmlns="http://www.w3.org/2000/svg" xmlns:xlink="http://www.w3.org/1999/xlink"><linearGradient id="linear-gradient" gradientUnits="userSpaceOnUse" x1="25.986" x2="487.643" y1="256" y2="256"><stop offset="0" stop-color="#3c87d1"/><stop offset=".2015" stop-color="#377cc9"/><stop offset=".5611" stop-color="#2b5db3"/><stop offset=".9944" stop-color="#193092"/></linearGradient><radialGradient id="radial-gradient" cx="266.288" cy="326" gradientTransform="matrix(.765 -.644 .489 .58 -96.674 308.341)" gradientUnits="userSpaceOnUse" r="270.534"><stop offset="0"/><stop offset="1" stop-color="#fff" stop-opacity="0"/></radialGradient><radialGradient id="radial-gradient-2" cx="212.421" cy="150.541" fx="263.195" fy="298.716" gradientUnits="userSpaceOnUse" r="219.386"><stop offset="0" stop-color="#fff"/><stop offset=".0736" stop-color="#fff" stop-opacity=".824"/><stop offset=".1652" stop-color="#fff" stop-opacity=".633"/><stop offset=".262" stop-color="#fff" stop-opacity=".463"/><stop offset=".362" stop-color="#fff" stop-opacity=".32"/><stop offset=".4663" stop-color="#fff" stop-opacity=".203"/><stop offset=".5761" stop-color="#fff" stop-opacity=".113"/><stop offset=".6941" stop-color="#fff" stop-opacity=".05"/><stop offset=".8259" stop-color="#fff" stop-opacity=".012"/><stop offset="1" stop-color="#fff" stop-opacity="0"/></radialGradient><g isolation="isolate"><g id="Layer_1" data-name="Layer 1"><circle cx="256.815" cy="256" fill="url(#linear-gradient)" r="230.829"/><path d="m294.8239 101.2438h42.8966v51.2256h-29.3215c-22.8057 0-27.6923 10.7844-27.6923 26.961v35.05h54.8418v55.0005h-54.8418v141.2753h-57.0144v-141.2757h-47.7832v-55.0005h47.7832v-40.4418c0-46.9119 28.7782-72.7944 71.1316-72.7944z" fill="#fff" fill-rule="evenodd"/><path d="m469.0754 165.1718a230.513 230.513 0 0 1 2.6011 34.5219c0 129.4458-107.6158 234.3828-240.3662 234.3828-75.1871 0-142.3008-33.67-186.377-86.3813 35.4756 81.86 116.9839 139.1333 211.8814 139.1333 127.4829 0 230.8286-103.3452 230.8286-230.8286a230.0658 230.0658 0 0 0 -18.5679-90.8281z" fill="url(#radial-gradient)" mix-blend-mode="multiply"/><path d="m40.9089 220.7355c21.96 56.25 116.2212 71.9993 210.5376 35.1773s158.5388-114.7754 131.0115-168.5215c-16.263-31.7537-69.4149-60.3147-132.123-62.1182h-.3424c-100.9336 2.9301-185.6026 70.6641-213.8983 163.0386a77.4018 77.4018 0 0 0 4.8146 32.4238z" fill="url(#radial-gradient-2)"/></g></g></svg>