<svg height="512" viewBox="0 0 512 512" width="512" xmlns="http://www.w3.org/2000/svg" xmlns:xlink="http://www.w3.org/1999/xlink"><linearGradient id="linear-gradient" gradientUnits="userSpaceOnUse" x1="25.986" x2="487.643" y1="259.657" y2="259.657"><stop offset=".0112" stop-color="#039be5"/><stop offset="1" stop-color="#27348b"/></linearGradient><radialGradient id="radial-gradient" cx="266.288" cy="329.657" gradientTransform="matrix(.765 -.644 .489 .58 -98.461 309.876)" gradientUnits="userSpaceOnUse" r="270.534"><stop offset="0"/><stop offset="1" stop-color="#fff" stop-opacity="0"/></radialGradient><radialGradient id="radial-gradient-2" cx="212.421" cy="154.198" fx="263.195" fy="302.373" gradientUnits="userSpaceOnUse" r="219.386"><stop offset="0" stop-color="#fff"/><stop offset=".0736" stop-color="#fff" stop-opacity=".824"/><stop offset=".1652" stop-color="#fff" stop-opacity=".633"/><stop offset=".262" stop-color="#fff" stop-opacity=".463"/><stop offset=".362" stop-color="#fff" stop-opacity=".32"/><stop offset=".4663" stop-color="#fff" stop-opacity=".203"/><stop offset=".5761" stop-color="#fff" stop-opacity=".113"/><stop offset=".6941" stop-color="#fff" stop-opacity=".05"/><stop offset=".8259" stop-color="#fff" stop-opacity=".012"/><stop offset="1" stop-color="#fff" stop-opacity="0"/></radialGradient><g isolation="isolate"><g id="Layer_1" data-name="Layer 1"><circle cx="256.815" cy="259.657" fill="url(#linear-gradient)" r="230.829"/><path d="m384.8076 141.77a3.0213 3.0213 0 0 1 4.1645 3.4123l-54.8329 257.2806a3.0911 3.0911 0 0 1 -4.8585 1.7063l-86.4137-61.42-48.2393 45.7238a3.3757 3.3757 0 0 1 -5.2054-1.3649l-32.9694-95.8833-90.2312-27.6387a3.0612 3.0612 0 0 1 0-5.801c166.234-61.0784 291.8638-106.461 318.5859-116.0152zm-57.6092 46.7475q-.52 0-153.74 95.883l21.5166 69.6095 4.5114-44.0173q131.7036-117.2103 131.8766-117.722a.6331.6331 0 0 0 0-1.0235c0-1.7063-1.3883-2.73-4.1646-2.73z" fill="#fff" fill-rule="evenodd"/><path d="m469.0754 168.8286a230.513 230.513 0 0 1 2.6011 34.5219c0 129.4458-107.6158 234.3829-240.3662 234.3829-75.1871 0-142.3008-33.67-186.377-86.3814 35.4756 81.86 116.9839 139.1333 211.8814 139.1333 127.4829 0 230.8286-103.3452 230.8286-230.8286a230.0658 230.0658 0 0 0 -18.5679-90.8281z" fill="url(#radial-gradient)" mix-blend-mode="multiply"/><path d="m40.9089 224.3923c21.96 56.25 116.2212 71.9993 210.5376 35.1773s158.5388-114.7754 131.0115-168.5215c-16.263-31.7537-69.4149-60.3147-132.123-62.1181h-.3424c-100.9336 2.93-185.6026 70.664-213.8983 163.0385a77.4018 77.4018 0 0 0 4.8146 32.4238z" fill="url(#radial-gradient-2)"/></g></g></svg>